<svg xmlns="http://www.w3.org/2000/svg" width="256" height="256" viewBox="0 0 100 100"><rect width="100" height="100" rx="20" fill="#1c0ae6"></rect><path fill="#fff" d="M68.41 37.23L31.59 37.23L31.59 29.94L68.41 29.94L68.41 37.23ZM68.18 79.07L68.18 79.07L68.18 86.94Q66.25 87.51 64.36 87.79Q62.48 88.08 60.20 88.08L60.20 88.08Q52.22 88.08 47.49 83.52Q42.76 78.96 42.76 69.84L42.76 69.84L42.76 15.23L51.99 11.92L51.99 68.58Q51.99 73.14 53.31 75.65Q54.62 78.16 56.90 79.13Q59.18 80.10 62.03 80.10L62.03 80.10Q63.74 80.10 65.10 79.87Q66.47 79.64 68.18 79.07Z"></path></svg>